<?xml version="1.0" encoding="utf-8"?>
<!-- Generator: Adobe Illustrator 21.1.0, SVG Export Plug-In . SVG Version: 6.00 Build 0)  -->
<svg version="1.1" id="Layer_1" xmlns="http://www.w3.org/2000/svg" xmlns:xlink="http://www.w3.org/1999/xlink" x="0px" y="0px"
	 viewBox="0 0 1080 1080" enable-background="new 0 0 1080 1080" xml:space="preserve">
<g>
	<polygon fill="#3949AB" points="365.1,198.8 266.6,369.4 463.6,369.4 	"/>
	<polygon fill="#3F51B5" points="365.1,540 463.6,369.4 266.6,369.4 	"/>
	<polygon fill="#5C6BC0" points="266.6,369.4 168.1,540 365.1,540 	"/>
	<polygon fill="#9FA8DA" points="168.1,540 69.6,710.6 266.6,710.6 	"/>
	<polygon fill="#7986CB" points="266.6,710.6 365.1,540 168.1,540 	"/>
	<polygon fill="#7986CB" points="517.9,881.2 616.4,710.6 419.4,710.6 	"/>
	<polygon fill="#1A237E" points="714.9,198.8 616.4,369.4 813.4,369.4 	"/>
	<polygon fill="#283593" points="714.9,540 813.4,369.4 616.4,369.4 	"/>
	<polygon fill="#3949AB" points="616.4,369.4 517.9,540 714.9,540 	"/>
	<polygon fill="#5C6BC0" points="517.9,540 419.4,710.6 616.4,710.6 	"/>
	<polygon fill="#3F51B5" points="616.4,710.6 714.9,540 517.9,540 	"/>
	<polygon fill="#3949AB" points="813.4,369.4 911.9,540 714.9,540 	"/>
	<polygon fill="#5C6BC0" points="911.9,540 1010.4,710.6 813.4,710.6 	"/>
	<polygon fill="#3F51B5" points="813.4,710.6 714.9,540 911.9,540 	"/>
</g>
</svg>
